# Blender v3.0.1 OBJ File: ''
# www.blender.org
o room_roof_Cube.007
v 6.078622 5.262008 -2.303302
v 6.078622 5.262008 3.661608
v 3.116302 5.262008 -2.303302
v 3.116302 5.262008 3.661608
v 6.078622 5.494580 -2.303302
v 6.078622 5.494580 3.661608
v 3.116302 5.494580 -2.303302
v 3.116302 5.494580 3.661608
v 0.249246 5.262008 -2.303302
v 0.249246 5.262008 3.661608
v 1.205221 5.335800 -2.303302
v 1.205221 5.335800 3.661608
vn 0.0000 0.0000 1.0000
vn 0.0000 1.0000 0.0000
vn 0.0000 0.0000 -1.0000
vn 1.0000 0.0000 0.0000
vn -0.0770 0.9970 0.0000
vn -0.0828 0.9966 0.0000
vn 0.0000 -1.0000 0.0000
s off
f 4//1 2//1 6//1 8//1
f 8//2 6//2 5//2 7//2
f 7//3 3//3 9//3 11//3
f 2//4 1//4 5//4 6//4
f 1//3 3//3 7//3 5//3
f 9//5 10//5 12//5 11//5
f 8//6 7//6 11//6 12//6
f 3//7 4//7 10//7 9//7
f 4//1 8//1 12//1 10//1
